G04 #@! TF.GenerationSoftware,KiCad,Pcbnew,5.0.0-fee4fd1~66~ubuntu16.04.1*
G04 #@! TF.CreationDate,2018-09-09T13:30:21+02:00*
G04 #@! TF.ProjectId,Tactile_Skin_Board,54616374696C655F536B696E5F426F61,rev?*
G04 #@! TF.SameCoordinates,Original*
G04 #@! TF.FileFunction,Legend,Bot*
G04 #@! TF.FilePolarity,Positive*
%FSLAX46Y46*%
G04 Gerber Fmt 4.6, Leading zero omitted, Abs format (unit mm)*
G04 Created by KiCad (PCBNEW 5.0.0-fee4fd1~66~ubuntu16.04.1) date Sun Sep  9 13:30:21 2018*
%MOMM*%
%LPD*%
G01*
G04 APERTURE LIST*
%ADD10C,0.007078*%
%ADD11C,0.100000*%
%ADD12C,0.014156*%
G04 APERTURE END LIST*
D10*
G04 #@! TO.C,svg2mod*
G36*
X129892122Y-116091550D02*
X129790435Y-115837502D01*
X129678890Y-115625417D01*
X129551310Y-115449262D01*
X129401519Y-115303003D01*
X129223340Y-115180606D01*
X129010596Y-115076037D01*
X128757109Y-114983263D01*
X128564330Y-114926700D01*
X128360310Y-114877927D01*
X128142369Y-114836705D01*
X127907828Y-114802799D01*
X127654005Y-114775971D01*
X127378221Y-114755984D01*
X127077794Y-114742601D01*
X126750045Y-114735585D01*
X126392294Y-114734699D01*
X126001859Y-114739706D01*
X125671301Y-114747806D01*
X125354338Y-114758991D01*
X125050450Y-114773317D01*
X124759121Y-114790843D01*
X124479832Y-114811627D01*
X124212066Y-114835727D01*
X123955304Y-114863201D01*
X123709029Y-114894106D01*
X123472723Y-114928501D01*
X123245867Y-114966443D01*
X123027945Y-115007991D01*
X122818438Y-115053202D01*
X122616829Y-115102135D01*
X122238112Y-115202719D01*
X121876057Y-115305763D01*
X121531345Y-115410960D01*
X121204658Y-115518002D01*
X120896680Y-115626583D01*
X120608094Y-115736396D01*
X120339580Y-115847134D01*
X120091823Y-115958490D01*
X119865505Y-116070158D01*
X119661308Y-116181830D01*
X119479915Y-116293199D01*
X119322008Y-116403959D01*
X119188270Y-116513803D01*
X119079383Y-116622423D01*
X118996031Y-116729513D01*
X118900005Y-116921015D01*
X118883142Y-117211662D01*
X118888162Y-117405954D01*
X118909485Y-117568447D01*
X118956504Y-117705271D01*
X119038614Y-117822554D01*
X119165209Y-117926425D01*
X119345682Y-118023013D01*
X119589428Y-118118447D01*
X119905839Y-118218856D01*
X120304312Y-118330368D01*
X120794238Y-118459112D01*
X121068818Y-118527874D01*
X121334748Y-118589599D01*
X121594526Y-118644618D01*
X121850649Y-118693263D01*
X122105616Y-118735863D01*
X122361926Y-118772750D01*
X122622076Y-118804253D01*
X122888565Y-118830705D01*
X123163891Y-118852435D01*
X123450553Y-118869775D01*
X123751048Y-118883055D01*
X124067874Y-118892606D01*
X124466792Y-118901370D01*
X124739186Y-118901086D01*
X124948448Y-118887444D01*
X125157971Y-118856138D01*
X125431149Y-118802859D01*
X125743419Y-118737991D01*
X126056551Y-118667835D01*
X126367004Y-118593412D01*
X126671235Y-118515742D01*
X126965702Y-118435847D01*
X127246861Y-118354746D01*
X127511171Y-118273461D01*
X127755088Y-118193011D01*
X127975071Y-118114419D01*
X128167577Y-118038705D01*
X128329063Y-117966889D01*
X128451852Y-117902719D01*
X128593317Y-117817892D01*
X128763625Y-117705441D01*
X128972944Y-117558402D01*
X129231439Y-117369809D01*
X129549279Y-117132696D01*
X129744539Y-116955054D01*
X129876181Y-116762954D01*
X129944481Y-116555576D01*
X129949712Y-116332095D01*
X129892151Y-116091691D01*
X129892122Y-116091550D01*
X129892122Y-116091550D01*
G37*
X129892122Y-116091550D02*
X129790435Y-115837502D01*
X129678890Y-115625417D01*
X129551310Y-115449262D01*
X129401519Y-115303003D01*
X129223340Y-115180606D01*
X129010596Y-115076037D01*
X128757109Y-114983263D01*
X128564330Y-114926700D01*
X128360310Y-114877927D01*
X128142369Y-114836705D01*
X127907828Y-114802799D01*
X127654005Y-114775971D01*
X127378221Y-114755984D01*
X127077794Y-114742601D01*
X126750045Y-114735585D01*
X126392294Y-114734699D01*
X126001859Y-114739706D01*
X125671301Y-114747806D01*
X125354338Y-114758991D01*
X125050450Y-114773317D01*
X124759121Y-114790843D01*
X124479832Y-114811627D01*
X124212066Y-114835727D01*
X123955304Y-114863201D01*
X123709029Y-114894106D01*
X123472723Y-114928501D01*
X123245867Y-114966443D01*
X123027945Y-115007991D01*
X122818438Y-115053202D01*
X122616829Y-115102135D01*
X122238112Y-115202719D01*
X121876057Y-115305763D01*
X121531345Y-115410960D01*
X121204658Y-115518002D01*
X120896680Y-115626583D01*
X120608094Y-115736396D01*
X120339580Y-115847134D01*
X120091823Y-115958490D01*
X119865505Y-116070158D01*
X119661308Y-116181830D01*
X119479915Y-116293199D01*
X119322008Y-116403959D01*
X119188270Y-116513803D01*
X119079383Y-116622423D01*
X118996031Y-116729513D01*
X118900005Y-116921015D01*
X118883142Y-117211662D01*
X118888162Y-117405954D01*
X118909485Y-117568447D01*
X118956504Y-117705271D01*
X119038614Y-117822554D01*
X119165209Y-117926425D01*
X119345682Y-118023013D01*
X119589428Y-118118447D01*
X119905839Y-118218856D01*
X120304312Y-118330368D01*
X120794238Y-118459112D01*
X121068818Y-118527874D01*
X121334748Y-118589599D01*
X121594526Y-118644618D01*
X121850649Y-118693263D01*
X122105616Y-118735863D01*
X122361926Y-118772750D01*
X122622076Y-118804253D01*
X122888565Y-118830705D01*
X123163891Y-118852435D01*
X123450553Y-118869775D01*
X123751048Y-118883055D01*
X124067874Y-118892606D01*
X124466792Y-118901370D01*
X124739186Y-118901086D01*
X124948448Y-118887444D01*
X125157971Y-118856138D01*
X125431149Y-118802859D01*
X125743419Y-118737991D01*
X126056551Y-118667835D01*
X126367004Y-118593412D01*
X126671235Y-118515742D01*
X126965702Y-118435847D01*
X127246861Y-118354746D01*
X127511171Y-118273461D01*
X127755088Y-118193011D01*
X127975071Y-118114419D01*
X128167577Y-118038705D01*
X128329063Y-117966889D01*
X128451852Y-117902719D01*
X128593317Y-117817892D01*
X128763625Y-117705441D01*
X128972944Y-117558402D01*
X129231439Y-117369809D01*
X129549279Y-117132696D01*
X129744539Y-116955054D01*
X129876181Y-116762954D01*
X129944481Y-116555576D01*
X129949712Y-116332095D01*
X129892151Y-116091691D01*
X129892122Y-116091550D01*
D11*
G36*
X129728913Y-98161492D02*
X129768049Y-97947970D01*
X130670632Y-98729916D01*
X130738712Y-98878865D01*
X130907360Y-99042989D01*
X131154939Y-99192533D01*
X131459810Y-99297747D01*
X131723124Y-99292103D01*
X131822960Y-99174420D01*
X131709013Y-98984791D01*
X131555815Y-98853165D01*
X131357173Y-98734700D01*
X131144466Y-98645233D01*
X130949073Y-98600602D01*
X130738253Y-98619546D01*
X130668826Y-98714902D01*
X130670350Y-98712983D01*
X130670632Y-98729916D01*
X129768049Y-97947970D01*
X129891420Y-97800802D01*
X130104861Y-97716060D01*
X130414205Y-97689814D01*
X130669047Y-97710916D01*
X130931519Y-97768183D01*
X131195331Y-97857640D01*
X131454191Y-97975309D01*
X131701809Y-98117215D01*
X131931892Y-98279381D01*
X132138149Y-98457830D01*
X132314289Y-98648586D01*
X132454020Y-98847673D01*
X132551051Y-99051113D01*
X132596469Y-99274913D01*
X132561304Y-99461106D01*
X132449028Y-99605274D01*
X132263116Y-99703000D01*
X132007039Y-99749867D01*
X131768685Y-99745480D01*
X131518531Y-99703445D01*
X131262764Y-99628076D01*
X131007568Y-99523687D01*
X130759131Y-99394591D01*
X130523637Y-99245102D01*
X130307273Y-99079534D01*
X130116226Y-98902201D01*
X129956680Y-98717417D01*
X129834822Y-98529495D01*
X129756838Y-98342748D01*
X129728913Y-98161492D01*
X129728913Y-98161492D01*
G37*
G36*
X127917555Y-108792945D02*
X127927341Y-108653068D01*
X128756178Y-108753518D01*
X128787987Y-108934579D01*
X128882894Y-109095321D01*
X129040968Y-109216645D01*
X129251306Y-109272499D01*
X129452092Y-109240080D01*
X129621962Y-109132847D01*
X129739551Y-108964263D01*
X129783495Y-108747789D01*
X129763951Y-108592454D01*
X129703344Y-108460995D01*
X129515466Y-108285917D01*
X129281754Y-108222975D01*
X129039896Y-108282348D01*
X128882162Y-108408112D01*
X128787665Y-108571574D01*
X128756347Y-108753405D01*
X128756178Y-108753518D01*
X127927341Y-108653068D01*
X127951986Y-108501127D01*
X128027612Y-108246682D01*
X128141739Y-108022377D01*
X128294398Y-107828224D01*
X128485625Y-107664235D01*
X128715453Y-107530424D01*
X128887070Y-107458060D01*
X129046419Y-107427151D01*
X129281704Y-107420639D01*
X129517886Y-107427308D01*
X129678640Y-107458938D01*
X129855067Y-107532964D01*
X130072216Y-107657145D01*
X130254954Y-107808213D01*
X130404558Y-107987707D01*
X130522306Y-108197167D01*
X130609475Y-108438135D01*
X130647354Y-108655858D01*
X130644032Y-108881515D01*
X130602227Y-109107457D01*
X130524662Y-109326035D01*
X130414057Y-109529600D01*
X130273131Y-109710505D01*
X130104608Y-109861099D01*
X129899297Y-109985493D01*
X129682213Y-110069900D01*
X129458287Y-110115730D01*
X129232448Y-110124390D01*
X129009626Y-110097289D01*
X128794752Y-110035838D01*
X128592754Y-109941443D01*
X128408562Y-109815516D01*
X128247108Y-109659463D01*
X128113319Y-109474695D01*
X128012127Y-109262619D01*
X127940196Y-109018592D01*
X127917583Y-108792747D01*
X127917555Y-108792945D01*
X127917555Y-108792945D01*
G37*
D12*
G36*
X109535858Y-107991208D02*
X126877171Y-108426366D01*
X126890530Y-108687148D01*
X126933432Y-108947030D01*
X127005035Y-109201667D01*
X127104496Y-109446715D01*
X127230975Y-109677828D01*
X127383628Y-109890660D01*
X127561614Y-110080867D01*
X127764091Y-110244102D01*
X127990216Y-110376022D01*
X128239147Y-110472280D01*
X128489931Y-110535944D01*
X128742592Y-110569049D01*
X128995622Y-110573498D01*
X129247513Y-110551195D01*
X129496758Y-110504047D01*
X129741850Y-110433958D01*
X129981279Y-110342831D01*
X130213540Y-110232573D01*
X130437124Y-110105087D01*
X130650523Y-109962279D01*
X130852231Y-109806053D01*
X131040739Y-109638313D01*
X131234828Y-109451424D01*
X131417512Y-109252402D01*
X131587914Y-109042183D01*
X131745156Y-108821707D01*
X131888361Y-108591909D01*
X132016652Y-108353729D01*
X132129150Y-108108104D01*
X132224978Y-107855972D01*
X132303259Y-107598270D01*
X132363115Y-107335937D01*
X132403668Y-107069909D01*
X132424042Y-106801126D01*
X132423358Y-106530524D01*
X132400739Y-106259041D01*
X132364887Y-106020470D01*
X132298969Y-105789598D01*
X132205170Y-105569020D01*
X132085680Y-105361330D01*
X131942685Y-105169125D01*
X131778372Y-104995001D01*
X131594931Y-104841553D01*
X131394546Y-104711376D01*
X131179407Y-104607066D01*
X130951701Y-104531220D01*
X130713615Y-104486431D01*
X130458294Y-104469016D01*
X130205583Y-104477233D01*
X129956388Y-104509552D01*
X129711613Y-104564447D01*
X129472162Y-104640386D01*
X129238940Y-104735843D01*
X129012851Y-104849288D01*
X128794799Y-104979193D01*
X128585690Y-105124028D01*
X128386428Y-105282266D01*
X128197916Y-105452377D01*
X128021060Y-105632832D01*
X127856764Y-105822104D01*
X127697178Y-106024483D01*
X127549305Y-106236189D01*
X127413943Y-106456404D01*
X127291890Y-106684311D01*
X127183944Y-106919093D01*
X127090902Y-107159932D01*
X127013561Y-107406010D01*
X126952720Y-107656510D01*
X126909176Y-107910615D01*
X126883727Y-108167506D01*
X126877171Y-108426366D01*
X109535858Y-107991208D01*
X128191169Y-97074400D01*
X128233754Y-97328148D01*
X128309001Y-97570100D01*
X128412655Y-97800681D01*
X128540462Y-98020310D01*
X128688167Y-98229412D01*
X128851515Y-98428409D01*
X129026251Y-98617722D01*
X129208122Y-98797773D01*
X129392871Y-98968987D01*
X129601392Y-99139072D01*
X129816701Y-99302249D01*
X130038540Y-99457484D01*
X130266652Y-99603749D01*
X130500776Y-99740013D01*
X130740655Y-99865244D01*
X130986029Y-99978412D01*
X131236641Y-100078486D01*
X131492231Y-100164437D01*
X131752541Y-100235233D01*
X132017312Y-100289843D01*
X132248337Y-100316404D01*
X132489844Y-100319639D01*
X132728865Y-100290287D01*
X132952429Y-100219087D01*
X133147568Y-100096776D01*
X133301310Y-99914092D01*
X133379401Y-99695008D01*
X133399964Y-99471316D01*
X133372270Y-99247112D01*
X133305591Y-99026490D01*
X133209199Y-98813545D01*
X133092367Y-98612371D01*
X132964365Y-98427063D01*
X132800576Y-98216328D01*
X132626109Y-98014808D01*
X132441605Y-97822611D01*
X132247704Y-97639844D01*
X132045048Y-97466617D01*
X131834278Y-97303035D01*
X131616035Y-97149207D01*
X131390959Y-97005241D01*
X131159693Y-96871243D01*
X130922876Y-96747323D01*
X130681151Y-96633587D01*
X130435158Y-96530144D01*
X130185538Y-96437100D01*
X129932932Y-96354564D01*
X129690927Y-96299275D01*
X129439236Y-96260699D01*
X129184877Y-96248167D01*
X128934867Y-96271006D01*
X128696222Y-96338546D01*
X128475960Y-96460116D01*
X128320205Y-96633209D01*
X128221391Y-96843875D01*
X128191169Y-97074542D01*
X128191169Y-97074400D01*
X109535858Y-107991208D01*
X109538541Y-107716507D01*
X109546509Y-107441737D01*
X109559780Y-107167028D01*
X109578376Y-106892512D01*
X109602315Y-106618320D01*
X109631618Y-106344585D01*
X109666304Y-106071436D01*
X138710219Y-103723356D01*
X138535732Y-103773700D01*
X138421680Y-103908488D01*
X138432562Y-104093267D01*
X138481161Y-104328979D01*
X138523221Y-104569964D01*
X138553633Y-104813912D01*
X138567288Y-105058510D01*
X138559074Y-105301446D01*
X138523883Y-105540408D01*
X138456604Y-105773086D01*
X138352128Y-105997167D01*
X138245413Y-106247685D01*
X138179973Y-106509993D01*
X138180481Y-106510106D01*
X138257071Y-106666793D01*
X138413642Y-106733887D01*
X138584845Y-106706376D01*
X138705329Y-106579250D01*
X138827994Y-106359850D01*
X138931962Y-106130683D01*
X139016453Y-105893507D01*
X139080685Y-105650076D01*
X139123878Y-105402147D01*
X139145250Y-105151476D01*
X139144019Y-104899820D01*
X139119406Y-104648935D01*
X139082100Y-104428359D01*
X139039819Y-104205595D01*
X138977642Y-103990245D01*
X138880646Y-103791910D01*
X138710219Y-103723356D01*
X109666304Y-106071436D01*
X109706394Y-105799007D01*
X109751907Y-105527428D01*
X109802863Y-105256830D01*
X109859281Y-104987346D01*
X109921183Y-104719106D01*
X109988587Y-104452243D01*
X110061513Y-104186887D01*
X110139981Y-103923169D01*
X110224012Y-103661223D01*
X110313625Y-103401178D01*
X110408839Y-103143166D01*
X110509675Y-102887319D01*
X110616152Y-102633769D01*
X110728291Y-102382646D01*
X110846110Y-102134082D01*
X110969631Y-101888209D01*
X111094021Y-101658255D01*
X111225087Y-101432102D01*
X111362704Y-101209923D01*
X111506747Y-100991895D01*
X111657093Y-100778192D01*
X111813617Y-100568990D01*
X111976194Y-100364464D01*
X112144701Y-100164789D01*
X112319013Y-99970141D01*
X112499006Y-99780694D01*
X112684555Y-99596625D01*
X112875536Y-99418108D01*
X113071825Y-99245318D01*
X113273297Y-99078431D01*
X113479828Y-98917622D01*
X113691297Y-98747220D01*
X113904956Y-98579053D01*
X114120785Y-98413229D01*
X114338759Y-98249853D01*
X114558857Y-98089032D01*
X114781055Y-97930873D01*
X115005330Y-97775482D01*
X115231661Y-97622966D01*
X115460024Y-97473432D01*
X115690396Y-97326986D01*
X115922755Y-97183735D01*
X116157078Y-97043785D01*
X116393341Y-96907242D01*
X116631524Y-96774214D01*
X116871602Y-96644808D01*
X117113552Y-96519128D01*
X117357353Y-96397283D01*
X117602981Y-96279379D01*
X117850414Y-96165521D01*
X118099629Y-96055818D01*
X118350602Y-95950375D01*
X118603312Y-95849299D01*
X118857736Y-95752697D01*
X119113850Y-95660675D01*
X119371632Y-95573340D01*
X119631060Y-95490798D01*
X119892110Y-95413156D01*
X120154760Y-95340521D01*
X120418986Y-95272998D01*
X120684768Y-95210695D01*
X120952080Y-95153719D01*
X121220901Y-95102175D01*
X121496868Y-95050537D01*
X121773748Y-95007219D01*
X122051441Y-94971639D01*
X122329849Y-94943216D01*
X122608871Y-94921365D01*
X122888410Y-94905505D01*
X123168365Y-94895053D01*
X123448637Y-94889426D01*
X123729127Y-94888043D01*
X124009736Y-94890320D01*
X124290364Y-94895676D01*
X124570912Y-94903527D01*
X124851280Y-94913291D01*
X125131371Y-94924386D01*
X125411083Y-94936228D01*
X125683457Y-94963493D01*
X125955103Y-94995288D01*
X126226011Y-95031496D01*
X126496173Y-95072001D01*
X126765582Y-95116685D01*
X127034229Y-95165433D01*
X127302106Y-95218126D01*
X127569205Y-95274649D01*
X127835518Y-95334884D01*
X128101036Y-95398715D01*
X128365752Y-95466025D01*
X128629656Y-95536698D01*
X128892742Y-95610615D01*
X129155001Y-95687662D01*
X129416424Y-95767720D01*
X129677004Y-95850674D01*
X129936732Y-95936406D01*
X130195600Y-96024799D01*
X130453601Y-96115738D01*
X130710725Y-96209104D01*
X130966965Y-96304781D01*
X131222312Y-96402653D01*
X131476759Y-96502603D01*
X131730298Y-96604514D01*
X131982919Y-96708269D01*
X132234615Y-96813751D01*
X132485378Y-96920843D01*
X132735538Y-97034037D01*
X132985159Y-97149020D01*
X133234012Y-97266061D01*
X133481869Y-97385430D01*
X133728501Y-97507396D01*
X133973679Y-97632229D01*
X134217174Y-97760197D01*
X134458758Y-97891571D01*
X134698201Y-98026619D01*
X134935276Y-98165611D01*
X135169753Y-98308817D01*
X135401403Y-98456505D01*
X135629998Y-98608946D01*
X135855308Y-98766407D01*
X136069054Y-98942371D01*
X136278424Y-99123521D01*
X136483381Y-99309659D01*
X136683890Y-99500589D01*
X136879913Y-99696114D01*
X137071415Y-99896037D01*
X137258357Y-100100162D01*
X137440705Y-100308292D01*
X137618422Y-100520230D01*
X137791470Y-100735779D01*
X137959813Y-100954743D01*
X138123415Y-101176924D01*
X138273711Y-101401305D01*
X138416485Y-101630157D01*
X138551767Y-101863247D01*
X138679584Y-102100339D01*
X138799968Y-102341199D01*
X138912946Y-102585593D01*
X139018548Y-102833287D01*
X139116803Y-103084045D01*
X139207740Y-103337635D01*
X139291388Y-103593821D01*
X139367777Y-103852369D01*
X139436936Y-104113045D01*
X139498894Y-104375614D01*
X139553679Y-104639842D01*
X139601322Y-104905495D01*
X139641851Y-105172338D01*
X139675295Y-105440137D01*
X139701684Y-105708657D01*
X139721047Y-105977665D01*
X139747580Y-106254067D01*
X139767814Y-106532361D01*
X139777971Y-106811426D01*
X139774276Y-107090142D01*
X139752951Y-107367386D01*
X139710221Y-107642038D01*
X139642307Y-107912976D01*
X139574923Y-108170344D01*
X139498657Y-108424595D01*
X139413858Y-108675717D01*
X139320876Y-108923699D01*
X139220059Y-109168533D01*
X139111758Y-109410206D01*
X138996319Y-109648709D01*
X138874094Y-109884030D01*
X138745430Y-110116161D01*
X138610678Y-110345089D01*
X138470186Y-110570805D01*
X138324302Y-110793297D01*
X138173377Y-111012557D01*
X138017760Y-111228572D01*
X137857798Y-111441333D01*
X137693842Y-111650829D01*
X137526241Y-111857049D01*
X137355344Y-112059983D01*
X137181499Y-112259621D01*
X137008598Y-112465310D01*
X136832600Y-112668513D01*
X136653389Y-112868961D01*
X136470853Y-113066384D01*
X136284877Y-113260512D01*
X136095348Y-113451075D01*
X135902150Y-113637804D01*
X135705172Y-113820428D01*
X135504297Y-113998678D01*
X135299414Y-114172283D01*
X135090407Y-114340974D01*
X134877164Y-114504481D01*
X134659569Y-114662533D01*
X134437509Y-114814861D01*
X134218434Y-114967065D01*
X133996999Y-115117219D01*
X133772883Y-115264155D01*
X133545768Y-115406702D01*
X133315332Y-115543691D01*
X133081255Y-115673954D01*
X132843219Y-115796321D01*
X132600902Y-115909623D01*
X132353986Y-116012689D01*
X132102149Y-116104352D01*
X131845072Y-116183442D01*
X131622720Y-116197537D01*
X131404571Y-116165276D01*
X131187840Y-116112505D01*
X130969739Y-116065071D01*
X130747482Y-116048822D01*
X130502277Y-116031125D01*
X130256866Y-116010732D01*
X130015877Y-115977419D01*
X129905630Y-115734818D01*
X129772223Y-115502251D01*
X129609902Y-115292272D01*
X129412913Y-115117434D01*
X129175504Y-114990291D01*
X128924018Y-114888251D01*
X128667127Y-114805284D01*
X128405693Y-114739243D01*
X128140576Y-114687978D01*
X127872636Y-114649342D01*
X127602734Y-114621184D01*
X127331731Y-114601357D01*
X127060488Y-114587712D01*
X126789866Y-114578100D01*
X126520724Y-114570372D01*
X126240012Y-114571688D01*
X125959138Y-114575946D01*
X125678202Y-114583381D01*
X125397305Y-114594227D01*
X125116546Y-114608717D01*
X124836026Y-114627084D01*
X124555843Y-114649563D01*
X124276099Y-114676387D01*
X123996894Y-114707790D01*
X123718326Y-114744006D01*
X123440496Y-114785268D01*
X123163505Y-114831809D01*
X122887452Y-114883865D01*
X122621068Y-114945644D01*
X122356417Y-115015093D01*
X122092898Y-115089289D01*
X121829910Y-115165307D01*
X121566854Y-115240222D01*
X121303129Y-115311109D01*
X121038134Y-115375044D01*
X120767129Y-115368020D01*
X120496077Y-115361915D01*
X120224987Y-115356602D01*
X119953867Y-115351956D01*
X119682723Y-115347849D01*
X119411563Y-115344157D01*
X119140396Y-115340752D01*
X118869227Y-115337508D01*
X118598066Y-115334299D01*
X118326919Y-115330998D01*
X118055793Y-115327480D01*
X117784698Y-115323617D01*
X117513639Y-115319284D01*
X117242624Y-115314355D01*
X116971662Y-115308703D01*
X116700759Y-115302201D01*
X116429923Y-115294724D01*
X116159161Y-115286144D01*
X115884366Y-115270857D01*
X115609635Y-115251952D01*
X115335054Y-115229395D01*
X115060708Y-115203150D01*
X114786682Y-115173181D01*
X114513062Y-115139455D01*
X114239933Y-115101935D01*
X113967379Y-115060586D01*
X113695485Y-115015374D01*
X113424338Y-114966263D01*
X113154022Y-114913218D01*
X112884622Y-114856204D01*
X112616224Y-114795185D01*
X112348912Y-114730127D01*
X112082772Y-114660994D01*
X111889580Y-114467413D01*
X111704251Y-114267269D01*
X111526754Y-114060858D01*
X111357061Y-113848478D01*
X111195143Y-113630424D01*
X111040971Y-113406995D01*
X110894515Y-113178488D01*
X110755746Y-112945198D01*
X110624636Y-112707423D01*
X110501156Y-112465460D01*
X110385275Y-112219605D01*
X110276966Y-111970157D01*
X110176199Y-111717411D01*
X110082945Y-111461664D01*
X109997175Y-111203214D01*
X109918859Y-110942356D01*
X109847970Y-110679390D01*
X109784477Y-110414610D01*
X109728352Y-110148314D01*
X109679565Y-109880799D01*
X109638088Y-109612362D01*
X109603891Y-109343300D01*
X109576945Y-109073910D01*
X109557222Y-108804488D01*
X109543215Y-108533646D01*
X109535480Y-108262868D01*
X109534644Y-107991123D01*
X109535858Y-107991208D01*
X109535858Y-107991208D01*
G37*
X109535858Y-107991208D02*
X126877171Y-108426366D01*
X126890530Y-108687148D01*
X126933432Y-108947030D01*
X127005035Y-109201667D01*
X127104496Y-109446715D01*
X127230975Y-109677828D01*
X127383628Y-109890660D01*
X127561614Y-110080867D01*
X127764091Y-110244102D01*
X127990216Y-110376022D01*
X128239147Y-110472280D01*
X128489931Y-110535944D01*
X128742592Y-110569049D01*
X128995622Y-110573498D01*
X129247513Y-110551195D01*
X129496758Y-110504047D01*
X129741850Y-110433958D01*
X129981279Y-110342831D01*
X130213540Y-110232573D01*
X130437124Y-110105087D01*
X130650523Y-109962279D01*
X130852231Y-109806053D01*
X131040739Y-109638313D01*
X131234828Y-109451424D01*
X131417512Y-109252402D01*
X131587914Y-109042183D01*
X131745156Y-108821707D01*
X131888361Y-108591909D01*
X132016652Y-108353729D01*
X132129150Y-108108104D01*
X132224978Y-107855972D01*
X132303259Y-107598270D01*
X132363115Y-107335937D01*
X132403668Y-107069909D01*
X132424042Y-106801126D01*
X132423358Y-106530524D01*
X132400739Y-106259041D01*
X132364887Y-106020470D01*
X132298969Y-105789598D01*
X132205170Y-105569020D01*
X132085680Y-105361330D01*
X131942685Y-105169125D01*
X131778372Y-104995001D01*
X131594931Y-104841553D01*
X131394546Y-104711376D01*
X131179407Y-104607066D01*
X130951701Y-104531220D01*
X130713615Y-104486431D01*
X130458294Y-104469016D01*
X130205583Y-104477233D01*
X129956388Y-104509552D01*
X129711613Y-104564447D01*
X129472162Y-104640386D01*
X129238940Y-104735843D01*
X129012851Y-104849288D01*
X128794799Y-104979193D01*
X128585690Y-105124028D01*
X128386428Y-105282266D01*
X128197916Y-105452377D01*
X128021060Y-105632832D01*
X127856764Y-105822104D01*
X127697178Y-106024483D01*
X127549305Y-106236189D01*
X127413943Y-106456404D01*
X127291890Y-106684311D01*
X127183944Y-106919093D01*
X127090902Y-107159932D01*
X127013561Y-107406010D01*
X126952720Y-107656510D01*
X126909176Y-107910615D01*
X126883727Y-108167506D01*
X126877171Y-108426366D01*
X109535858Y-107991208D01*
X128191169Y-97074400D01*
X128233754Y-97328148D01*
X128309001Y-97570100D01*
X128412655Y-97800681D01*
X128540462Y-98020310D01*
X128688167Y-98229412D01*
X128851515Y-98428409D01*
X129026251Y-98617722D01*
X129208122Y-98797773D01*
X129392871Y-98968987D01*
X129601392Y-99139072D01*
X129816701Y-99302249D01*
X130038540Y-99457484D01*
X130266652Y-99603749D01*
X130500776Y-99740013D01*
X130740655Y-99865244D01*
X130986029Y-99978412D01*
X131236641Y-100078486D01*
X131492231Y-100164437D01*
X131752541Y-100235233D01*
X132017312Y-100289843D01*
X132248337Y-100316404D01*
X132489844Y-100319639D01*
X132728865Y-100290287D01*
X132952429Y-100219087D01*
X133147568Y-100096776D01*
X133301310Y-99914092D01*
X133379401Y-99695008D01*
X133399964Y-99471316D01*
X133372270Y-99247112D01*
X133305591Y-99026490D01*
X133209199Y-98813545D01*
X133092367Y-98612371D01*
X132964365Y-98427063D01*
X132800576Y-98216328D01*
X132626109Y-98014808D01*
X132441605Y-97822611D01*
X132247704Y-97639844D01*
X132045048Y-97466617D01*
X131834278Y-97303035D01*
X131616035Y-97149207D01*
X131390959Y-97005241D01*
X131159693Y-96871243D01*
X130922876Y-96747323D01*
X130681151Y-96633587D01*
X130435158Y-96530144D01*
X130185538Y-96437100D01*
X129932932Y-96354564D01*
X129690927Y-96299275D01*
X129439236Y-96260699D01*
X129184877Y-96248167D01*
X128934867Y-96271006D01*
X128696222Y-96338546D01*
X128475960Y-96460116D01*
X128320205Y-96633209D01*
X128221391Y-96843875D01*
X128191169Y-97074542D01*
X128191169Y-97074400D01*
X109535858Y-107991208D01*
X109538541Y-107716507D01*
X109546509Y-107441737D01*
X109559780Y-107167028D01*
X109578376Y-106892512D01*
X109602315Y-106618320D01*
X109631618Y-106344585D01*
X109666304Y-106071436D01*
X138710219Y-103723356D01*
X138535732Y-103773700D01*
X138421680Y-103908488D01*
X138432562Y-104093267D01*
X138481161Y-104328979D01*
X138523221Y-104569964D01*
X138553633Y-104813912D01*
X138567288Y-105058510D01*
X138559074Y-105301446D01*
X138523883Y-105540408D01*
X138456604Y-105773086D01*
X138352128Y-105997167D01*
X138245413Y-106247685D01*
X138179973Y-106509993D01*
X138180481Y-106510106D01*
X138257071Y-106666793D01*
X138413642Y-106733887D01*
X138584845Y-106706376D01*
X138705329Y-106579250D01*
X138827994Y-106359850D01*
X138931962Y-106130683D01*
X139016453Y-105893507D01*
X139080685Y-105650076D01*
X139123878Y-105402147D01*
X139145250Y-105151476D01*
X139144019Y-104899820D01*
X139119406Y-104648935D01*
X139082100Y-104428359D01*
X139039819Y-104205595D01*
X138977642Y-103990245D01*
X138880646Y-103791910D01*
X138710219Y-103723356D01*
X109666304Y-106071436D01*
X109706394Y-105799007D01*
X109751907Y-105527428D01*
X109802863Y-105256830D01*
X109859281Y-104987346D01*
X109921183Y-104719106D01*
X109988587Y-104452243D01*
X110061513Y-104186887D01*
X110139981Y-103923169D01*
X110224012Y-103661223D01*
X110313625Y-103401178D01*
X110408839Y-103143166D01*
X110509675Y-102887319D01*
X110616152Y-102633769D01*
X110728291Y-102382646D01*
X110846110Y-102134082D01*
X110969631Y-101888209D01*
X111094021Y-101658255D01*
X111225087Y-101432102D01*
X111362704Y-101209923D01*
X111506747Y-100991895D01*
X111657093Y-100778192D01*
X111813617Y-100568990D01*
X111976194Y-100364464D01*
X112144701Y-100164789D01*
X112319013Y-99970141D01*
X112499006Y-99780694D01*
X112684555Y-99596625D01*
X112875536Y-99418108D01*
X113071825Y-99245318D01*
X113273297Y-99078431D01*
X113479828Y-98917622D01*
X113691297Y-98747220D01*
X113904956Y-98579053D01*
X114120785Y-98413229D01*
X114338759Y-98249853D01*
X114558857Y-98089032D01*
X114781055Y-97930873D01*
X115005330Y-97775482D01*
X115231661Y-97622966D01*
X115460024Y-97473432D01*
X115690396Y-97326986D01*
X115922755Y-97183735D01*
X116157078Y-97043785D01*
X116393341Y-96907242D01*
X116631524Y-96774214D01*
X116871602Y-96644808D01*
X117113552Y-96519128D01*
X117357353Y-96397283D01*
X117602981Y-96279379D01*
X117850414Y-96165521D01*
X118099629Y-96055818D01*
X118350602Y-95950375D01*
X118603312Y-95849299D01*
X118857736Y-95752697D01*
X119113850Y-95660675D01*
X119371632Y-95573340D01*
X119631060Y-95490798D01*
X119892110Y-95413156D01*
X120154760Y-95340521D01*
X120418986Y-95272998D01*
X120684768Y-95210695D01*
X120952080Y-95153719D01*
X121220901Y-95102175D01*
X121496868Y-95050537D01*
X121773748Y-95007219D01*
X122051441Y-94971639D01*
X122329849Y-94943216D01*
X122608871Y-94921365D01*
X122888410Y-94905505D01*
X123168365Y-94895053D01*
X123448637Y-94889426D01*
X123729127Y-94888043D01*
X124009736Y-94890320D01*
X124290364Y-94895676D01*
X124570912Y-94903527D01*
X124851280Y-94913291D01*
X125131371Y-94924386D01*
X125411083Y-94936228D01*
X125683457Y-94963493D01*
X125955103Y-94995288D01*
X126226011Y-95031496D01*
X126496173Y-95072001D01*
X126765582Y-95116685D01*
X127034229Y-95165433D01*
X127302106Y-95218126D01*
X127569205Y-95274649D01*
X127835518Y-95334884D01*
X128101036Y-95398715D01*
X128365752Y-95466025D01*
X128629656Y-95536698D01*
X128892742Y-95610615D01*
X129155001Y-95687662D01*
X129416424Y-95767720D01*
X129677004Y-95850674D01*
X129936732Y-95936406D01*
X130195600Y-96024799D01*
X130453601Y-96115738D01*
X130710725Y-96209104D01*
X130966965Y-96304781D01*
X131222312Y-96402653D01*
X131476759Y-96502603D01*
X131730298Y-96604514D01*
X131982919Y-96708269D01*
X132234615Y-96813751D01*
X132485378Y-96920843D01*
X132735538Y-97034037D01*
X132985159Y-97149020D01*
X133234012Y-97266061D01*
X133481869Y-97385430D01*
X133728501Y-97507396D01*
X133973679Y-97632229D01*
X134217174Y-97760197D01*
X134458758Y-97891571D01*
X134698201Y-98026619D01*
X134935276Y-98165611D01*
X135169753Y-98308817D01*
X135401403Y-98456505D01*
X135629998Y-98608946D01*
X135855308Y-98766407D01*
X136069054Y-98942371D01*
X136278424Y-99123521D01*
X136483381Y-99309659D01*
X136683890Y-99500589D01*
X136879913Y-99696114D01*
X137071415Y-99896037D01*
X137258357Y-100100162D01*
X137440705Y-100308292D01*
X137618422Y-100520230D01*
X137791470Y-100735779D01*
X137959813Y-100954743D01*
X138123415Y-101176924D01*
X138273711Y-101401305D01*
X138416485Y-101630157D01*
X138551767Y-101863247D01*
X138679584Y-102100339D01*
X138799968Y-102341199D01*
X138912946Y-102585593D01*
X139018548Y-102833287D01*
X139116803Y-103084045D01*
X139207740Y-103337635D01*
X139291388Y-103593821D01*
X139367777Y-103852369D01*
X139436936Y-104113045D01*
X139498894Y-104375614D01*
X139553679Y-104639842D01*
X139601322Y-104905495D01*
X139641851Y-105172338D01*
X139675295Y-105440137D01*
X139701684Y-105708657D01*
X139721047Y-105977665D01*
X139747580Y-106254067D01*
X139767814Y-106532361D01*
X139777971Y-106811426D01*
X139774276Y-107090142D01*
X139752951Y-107367386D01*
X139710221Y-107642038D01*
X139642307Y-107912976D01*
X139574923Y-108170344D01*
X139498657Y-108424595D01*
X139413858Y-108675717D01*
X139320876Y-108923699D01*
X139220059Y-109168533D01*
X139111758Y-109410206D01*
X138996319Y-109648709D01*
X138874094Y-109884030D01*
X138745430Y-110116161D01*
X138610678Y-110345089D01*
X138470186Y-110570805D01*
X138324302Y-110793297D01*
X138173377Y-111012557D01*
X138017760Y-111228572D01*
X137857798Y-111441333D01*
X137693842Y-111650829D01*
X137526241Y-111857049D01*
X137355344Y-112059983D01*
X137181499Y-112259621D01*
X137008598Y-112465310D01*
X136832600Y-112668513D01*
X136653389Y-112868961D01*
X136470853Y-113066384D01*
X136284877Y-113260512D01*
X136095348Y-113451075D01*
X135902150Y-113637804D01*
X135705172Y-113820428D01*
X135504297Y-113998678D01*
X135299414Y-114172283D01*
X135090407Y-114340974D01*
X134877164Y-114504481D01*
X134659569Y-114662533D01*
X134437509Y-114814861D01*
X134218434Y-114967065D01*
X133996999Y-115117219D01*
X133772883Y-115264155D01*
X133545768Y-115406702D01*
X133315332Y-115543691D01*
X133081255Y-115673954D01*
X132843219Y-115796321D01*
X132600902Y-115909623D01*
X132353986Y-116012689D01*
X132102149Y-116104352D01*
X131845072Y-116183442D01*
X131622720Y-116197537D01*
X131404571Y-116165276D01*
X131187840Y-116112505D01*
X130969739Y-116065071D01*
X130747482Y-116048822D01*
X130502277Y-116031125D01*
X130256866Y-116010732D01*
X130015877Y-115977419D01*
X129905630Y-115734818D01*
X129772223Y-115502251D01*
X129609902Y-115292272D01*
X129412913Y-115117434D01*
X129175504Y-114990291D01*
X128924018Y-114888251D01*
X128667127Y-114805284D01*
X128405693Y-114739243D01*
X128140576Y-114687978D01*
X127872636Y-114649342D01*
X127602734Y-114621184D01*
X127331731Y-114601357D01*
X127060488Y-114587712D01*
X126789866Y-114578100D01*
X126520724Y-114570372D01*
X126240012Y-114571688D01*
X125959138Y-114575946D01*
X125678202Y-114583381D01*
X125397305Y-114594227D01*
X125116546Y-114608717D01*
X124836026Y-114627084D01*
X124555843Y-114649563D01*
X124276099Y-114676387D01*
X123996894Y-114707790D01*
X123718326Y-114744006D01*
X123440496Y-114785268D01*
X123163505Y-114831809D01*
X122887452Y-114883865D01*
X122621068Y-114945644D01*
X122356417Y-115015093D01*
X122092898Y-115089289D01*
X121829910Y-115165307D01*
X121566854Y-115240222D01*
X121303129Y-115311109D01*
X121038134Y-115375044D01*
X120767129Y-115368020D01*
X120496077Y-115361915D01*
X120224987Y-115356602D01*
X119953867Y-115351956D01*
X119682723Y-115347849D01*
X119411563Y-115344157D01*
X119140396Y-115340752D01*
X118869227Y-115337508D01*
X118598066Y-115334299D01*
X118326919Y-115330998D01*
X118055793Y-115327480D01*
X117784698Y-115323617D01*
X117513639Y-115319284D01*
X117242624Y-115314355D01*
X116971662Y-115308703D01*
X116700759Y-115302201D01*
X116429923Y-115294724D01*
X116159161Y-115286144D01*
X115884366Y-115270857D01*
X115609635Y-115251952D01*
X115335054Y-115229395D01*
X115060708Y-115203150D01*
X114786682Y-115173181D01*
X114513062Y-115139455D01*
X114239933Y-115101935D01*
X113967379Y-115060586D01*
X113695485Y-115015374D01*
X113424338Y-114966263D01*
X113154022Y-114913218D01*
X112884622Y-114856204D01*
X112616224Y-114795185D01*
X112348912Y-114730127D01*
X112082772Y-114660994D01*
X111889580Y-114467413D01*
X111704251Y-114267269D01*
X111526754Y-114060858D01*
X111357061Y-113848478D01*
X111195143Y-113630424D01*
X111040971Y-113406995D01*
X110894515Y-113178488D01*
X110755746Y-112945198D01*
X110624636Y-112707423D01*
X110501156Y-112465460D01*
X110385275Y-112219605D01*
X110276966Y-111970157D01*
X110176199Y-111717411D01*
X110082945Y-111461664D01*
X109997175Y-111203214D01*
X109918859Y-110942356D01*
X109847970Y-110679390D01*
X109784477Y-110414610D01*
X109728352Y-110148314D01*
X109679565Y-109880799D01*
X109638088Y-109612362D01*
X109603891Y-109343300D01*
X109576945Y-109073910D01*
X109557222Y-108804488D01*
X109543215Y-108533646D01*
X109535480Y-108262868D01*
X109534644Y-107991123D01*
X109535858Y-107991208D01*
G04 #@! TD*
M02*
