M48
;DRILL file {KiCad 5.0.0-fee4fd1~66~ubuntu16.04.1} date Sun Sep  9 13:30:23 2018
;FORMAT={-:-/ absolute / inch / decimal}
FMAT,2
INCH,TZ
T1C0.0157
T2C0.0394
%
G90
G05
M72
T1
X4.3858Y-4.1929
X4.3898Y-4.0157
X4.4291Y-4.1339
X4.4488Y-4.0709
X4.4921Y-4.1181
X4.4921Y-4.311
X4.5551Y-4.5039
X4.563Y-4.311
X4.7441Y-4.0197
X4.7598Y-4.0551
X4.8189Y-3.9882
X4.8189Y-4.5039
X4.8661Y-3.7677
X4.8858Y-4.5039
X4.8858Y-4.626
X4.9606Y-4.5
X5.0079Y-3.7953
X5.0709Y-4.248
X5.0709Y-4.5039
X5.126Y-4.0551
X5.126Y-4.4685
X5.1457Y-3.7913
X5.2362Y-4.5157
X5.2402Y-4.6693
X5.2598Y-4.0591
X5.2638Y-3.7913
X5.3228Y-4.248
X5.3228Y-4.5
X5.4331Y-3.9488
T2
X4.1339Y-4.6457
X4.2339Y-4.6457
X4.1339Y-3.7008
X4.1339Y-3.8008
X4.1339Y-3.9008
X4.1339Y-4.0008
X4.1339Y-4.1008
X4.1339Y-4.2008
X4.1339Y-4.3008
X4.1339Y-4.4008
X4.1339Y-4.5008
X4.2339Y-3.7008
X4.2339Y-3.8008
X4.2339Y-3.9008
X4.2339Y-4.0008
X4.2339Y-4.1008
X4.2339Y-4.2008
X4.2339Y-4.3008
X4.2339Y-4.4008
X4.2339Y-4.5008
T0
M30
