G04 #@! TF.GenerationSoftware,KiCad,Pcbnew,5.0.0-fee4fd1~66~ubuntu16.04.1*
G04 #@! TF.CreationDate,2018-09-09T13:30:21+02:00*
G04 #@! TF.ProjectId,Tactile_Skin_Board,54616374696C655F536B696E5F426F61,rev?*
G04 #@! TF.SameCoordinates,Original*
G04 #@! TF.FileFunction,Copper,L2,Bot,Signal*
G04 #@! TF.FilePolarity,Positive*
%FSLAX46Y46*%
G04 Gerber Fmt 4.6, Leading zero omitted, Abs format (unit mm)*
G04 Created by KiCad (PCBNEW 5.0.0-fee4fd1~66~ubuntu16.04.1) date Sun Sep  9 13:30:21 2018*
%MOMM*%
%LPD*%
G01*
G04 APERTURE LIST*
G04 #@! TA.AperFunction,ComponentPad*
%ADD10R,1.700000X1.700000*%
G04 #@! TD*
G04 #@! TA.AperFunction,ComponentPad*
%ADD11O,1.700000X1.700000*%
G04 #@! TD*
G04 #@! TA.AperFunction,ViaPad*
%ADD12C,0.800000*%
G04 #@! TD*
G04 #@! TA.AperFunction,Conductor*
%ADD13C,0.200000*%
G04 #@! TD*
G04 #@! TA.AperFunction,Conductor*
%ADD14C,0.254000*%
G04 #@! TD*
G04 APERTURE END LIST*
D10*
G04 #@! TO.P,J2,1*
G04 #@! TO.N,GND*
X105000000Y-118000000D03*
D11*
G04 #@! TO.P,J2,2*
G04 #@! TO.N,3.3V*
X107540000Y-118000000D03*
G04 #@! TD*
D10*
G04 #@! TO.P,J1,1*
G04 #@! TO.N,SDA0*
X105000000Y-94000000D03*
D11*
G04 #@! TO.P,J1,2*
G04 #@! TO.N,SCL0*
X107540000Y-94000000D03*
G04 #@! TO.P,J1,3*
G04 #@! TO.N,SDA1*
X105000000Y-96540000D03*
G04 #@! TO.P,J1,4*
G04 #@! TO.N,SCL1*
X107540000Y-96540000D03*
G04 #@! TO.P,J1,5*
G04 #@! TO.N,SDA2*
X105000000Y-99080000D03*
G04 #@! TO.P,J1,6*
G04 #@! TO.N,SCL2*
X107540000Y-99080000D03*
G04 #@! TO.P,J1,7*
G04 #@! TO.N,SDA3*
X105000000Y-101620000D03*
G04 #@! TO.P,J1,8*
G04 #@! TO.N,SCL3*
X107540000Y-101620000D03*
G04 #@! TO.P,J1,9*
G04 #@! TO.N,SDA4*
X105000000Y-104160000D03*
G04 #@! TO.P,J1,10*
G04 #@! TO.N,SCL4*
X107540000Y-104160000D03*
G04 #@! TO.P,J1,11*
G04 #@! TO.N,SDA5*
X105000000Y-106700000D03*
G04 #@! TO.P,J1,12*
G04 #@! TO.N,SCL5*
X107540000Y-106700000D03*
G04 #@! TO.P,J1,13*
G04 #@! TO.N,SDA6*
X105000000Y-109240000D03*
G04 #@! TO.P,J1,14*
G04 #@! TO.N,SCL6*
X107540000Y-109240000D03*
G04 #@! TO.P,J1,15*
G04 #@! TO.N,SDA7*
X105000000Y-111780000D03*
G04 #@! TO.P,J1,16*
G04 #@! TO.N,SCL7*
X107540000Y-111780000D03*
G04 #@! TO.P,J1,17*
G04 #@! TO.N,SDA8*
X105000000Y-114320000D03*
G04 #@! TO.P,J1,18*
G04 #@! TO.N,SCL8*
X107540000Y-114320000D03*
G04 #@! TD*
D12*
G04 #@! TO.N,SDA2*
X115900000Y-109500000D03*
X112500000Y-105000000D03*
G04 #@! TO.N,SCL2*
X114100000Y-109500000D03*
X111400000Y-106500000D03*
G04 #@! TO.N,SDA3*
X127200000Y-96400000D03*
G04 #@! TO.N,SCL3*
X123600000Y-95700000D03*
G04 #@! TO.N,SDA4*
X120500000Y-102100000D03*
X113000000Y-103400000D03*
X111500000Y-102000000D03*
G04 #@! TO.N,SCL4*
X114100000Y-104600000D03*
X120900000Y-103000000D03*
G04 #@! TO.N,SCL5*
X126000000Y-114300000D03*
X115700000Y-114400000D03*
G04 #@! TO.N,SDA6*
X133700000Y-96300000D03*
G04 #@! TO.N,SCL6*
X130700000Y-96300000D03*
G04 #@! TO.N,SDA7*
X133600000Y-103100000D03*
G04 #@! TO.N,SCL7*
X130200000Y-103000000D03*
G04 #@! TO.N,3.3V*
X122400000Y-101300000D03*
X135200000Y-107900000D03*
X128800000Y-107900000D03*
X122400000Y-114400000D03*
X128800000Y-114400000D03*
X135200000Y-114300000D03*
X138000000Y-100300000D03*
G04 #@! TO.N,GND*
X133000000Y-114700000D03*
X133100000Y-118600000D03*
X130200000Y-113500000D03*
X124100000Y-114400001D03*
X124100000Y-117500000D03*
G04 #@! TD*
D13*
G04 #@! TO.N,SDA2*
X115900000Y-108400000D02*
X112500000Y-105000000D01*
X115900000Y-109500000D02*
X115900000Y-108400000D01*
G04 #@! TO.N,SCL2*
X111400000Y-106800000D02*
X111400000Y-106500000D01*
X114100000Y-109500000D02*
X111400000Y-106800000D01*
G04 #@! TO.N,SDA3*
X105000000Y-101620000D02*
X106050001Y-102670001D01*
X106050001Y-102670001D02*
X108044001Y-102670001D01*
X114314002Y-96400000D02*
X127200000Y-96400000D01*
X108044001Y-102670001D02*
X114314002Y-96400000D01*
G04 #@! TO.N,SCL3*
X113460000Y-95700000D02*
X123600000Y-95700000D01*
X107540000Y-101620000D02*
X113460000Y-95700000D01*
G04 #@! TO.N,SDA4*
X114300000Y-102100000D02*
X113000000Y-103400000D01*
X120500000Y-102100000D02*
X114300000Y-102100000D01*
X105849999Y-103310001D02*
X105000000Y-104160000D01*
X110529989Y-102970011D02*
X106189989Y-102970011D01*
X106189989Y-102970011D02*
X105849999Y-103310001D01*
X111500000Y-102000000D02*
X110529989Y-102970011D01*
G04 #@! TO.N,SCL4*
X120900000Y-103000000D02*
X115700000Y-103000000D01*
X115700000Y-103000000D02*
X114100000Y-104600000D01*
G04 #@! TO.N,SCL5*
X116300001Y-113799999D02*
X115700000Y-114400000D01*
X125499999Y-113799999D02*
X116300001Y-113799999D01*
X126000000Y-114300000D02*
X125499999Y-113799999D01*
G04 #@! TO.N,SDA6*
X105000000Y-109240000D02*
X106050001Y-110290001D01*
X119021997Y-110290001D02*
X133011998Y-96300000D01*
X106050001Y-110290001D02*
X119021997Y-110290001D01*
X133011998Y-96300000D02*
X133700000Y-96300000D01*
G04 #@! TO.N,SCL6*
X113900000Y-100700000D02*
X130700000Y-96300000D01*
X107540000Y-109240000D02*
X113900000Y-100700000D01*
G04 #@! TO.N,SDA7*
X106050001Y-112830001D02*
X124758001Y-112830001D01*
X124758001Y-112830001D02*
X133600000Y-103988002D01*
X105000000Y-111780000D02*
X106050001Y-112830001D01*
X133600000Y-103988002D02*
X133600000Y-103100000D01*
G04 #@! TO.N,SCL7*
X121420000Y-111780000D02*
X130200000Y-103000000D01*
X107540000Y-111780000D02*
X121420000Y-111780000D01*
G04 #@! TO.N,3.3V*
X122400000Y-114965685D02*
X121200000Y-116165685D01*
X122400000Y-114400000D02*
X122400000Y-114965685D01*
X121200000Y-116165685D02*
X121200000Y-117800000D01*
G04 #@! TO.N,GND*
X133000000Y-118500000D02*
X133100000Y-118600000D01*
X133000000Y-114700000D02*
X133000000Y-118500000D01*
X131400000Y-114700000D02*
X130200000Y-113500000D01*
X133000000Y-114700000D02*
X131400000Y-114700000D01*
X124100000Y-114965686D02*
X124100000Y-117500000D01*
X124100000Y-114400001D02*
X124100000Y-114965686D01*
G04 #@! TD*
D14*
G04 #@! TO.N,3.3V*
G36*
X140290001Y-119290000D02*
X133873711Y-119290000D01*
X133977431Y-119186280D01*
X134135000Y-118805874D01*
X134135000Y-118394126D01*
X133977431Y-118013720D01*
X133735000Y-117771289D01*
X133735000Y-115428711D01*
X133877431Y-115286280D01*
X134035000Y-114905874D01*
X134035000Y-114494126D01*
X133877431Y-114113720D01*
X133586280Y-113822569D01*
X133205874Y-113665000D01*
X132794126Y-113665000D01*
X132413720Y-113822569D01*
X132271289Y-113965000D01*
X131704447Y-113965000D01*
X131235000Y-113495554D01*
X131235000Y-113294126D01*
X131077431Y-112913720D01*
X130786280Y-112622569D01*
X130405874Y-112465000D01*
X129994126Y-112465000D01*
X129613720Y-112622569D01*
X129322569Y-112913720D01*
X129165000Y-113294126D01*
X129165000Y-113705874D01*
X129322569Y-114086280D01*
X129613720Y-114377431D01*
X129994126Y-114535000D01*
X130195554Y-114535000D01*
X130829090Y-115168537D01*
X130870095Y-115229905D01*
X131113217Y-115392354D01*
X131327612Y-115435000D01*
X131327615Y-115435000D01*
X131399999Y-115449398D01*
X131472383Y-115435000D01*
X132265000Y-115435000D01*
X132265001Y-117971288D01*
X132222569Y-118013720D01*
X132065000Y-118394126D01*
X132065000Y-118805874D01*
X132222569Y-119186280D01*
X132326289Y-119290000D01*
X108262608Y-119290000D01*
X108306924Y-119271645D01*
X108735183Y-118881358D01*
X108981486Y-118356892D01*
X108860819Y-118127000D01*
X107667000Y-118127000D01*
X107667000Y-118147000D01*
X107413000Y-118147000D01*
X107413000Y-118127000D01*
X107393000Y-118127000D01*
X107393000Y-117873000D01*
X107413000Y-117873000D01*
X107413000Y-116679845D01*
X107667000Y-116679845D01*
X107667000Y-117873000D01*
X108860819Y-117873000D01*
X108981486Y-117643108D01*
X108735183Y-117118642D01*
X108306924Y-116728355D01*
X107896890Y-116558524D01*
X107667000Y-116679845D01*
X107413000Y-116679845D01*
X107183110Y-116558524D01*
X106773076Y-116728355D01*
X106468739Y-117005708D01*
X106448157Y-116902235D01*
X106307809Y-116692191D01*
X106097765Y-116551843D01*
X105850000Y-116502560D01*
X104150000Y-116502560D01*
X103902235Y-116551843D01*
X103710000Y-116680291D01*
X103710000Y-115062307D01*
X103929375Y-115390625D01*
X104420582Y-115718839D01*
X104853744Y-115805000D01*
X105146256Y-115805000D01*
X105579418Y-115718839D01*
X106070625Y-115390625D01*
X106270000Y-115092239D01*
X106469375Y-115390625D01*
X106960582Y-115718839D01*
X107393744Y-115805000D01*
X107686256Y-115805000D01*
X108119418Y-115718839D01*
X108610625Y-115390625D01*
X108938839Y-114899418D01*
X109054092Y-114320000D01*
X108938839Y-113740582D01*
X108821520Y-113565001D01*
X115071288Y-113565001D01*
X114822569Y-113813720D01*
X114665000Y-114194126D01*
X114665000Y-114605874D01*
X114822569Y-114986280D01*
X115113720Y-115277431D01*
X115494126Y-115435000D01*
X115905874Y-115435000D01*
X116286280Y-115277431D01*
X116577431Y-114986280D01*
X116735000Y-114605874D01*
X116735000Y-114534999D01*
X123065000Y-114534999D01*
X123065000Y-114605875D01*
X123222569Y-114986281D01*
X123365000Y-115128712D01*
X123365001Y-116771288D01*
X123222569Y-116913720D01*
X123065000Y-117294126D01*
X123065000Y-117705874D01*
X123222569Y-118086280D01*
X123513720Y-118377431D01*
X123894126Y-118535000D01*
X124305874Y-118535000D01*
X124686280Y-118377431D01*
X124977431Y-118086280D01*
X125135000Y-117705874D01*
X125135000Y-117294126D01*
X124977431Y-116913720D01*
X124835000Y-116771289D01*
X124835000Y-115128712D01*
X124977431Y-114986281D01*
X125070711Y-114761083D01*
X125122569Y-114886280D01*
X125413720Y-115177431D01*
X125794126Y-115335000D01*
X126205874Y-115335000D01*
X126586280Y-115177431D01*
X126877431Y-114886280D01*
X127035000Y-114505874D01*
X127035000Y-114094126D01*
X126877431Y-113713720D01*
X126586280Y-113422569D01*
X126205874Y-113265000D01*
X126022280Y-113265000D01*
X125786782Y-113107645D01*
X125572387Y-113064999D01*
X125572383Y-113064999D01*
X125564097Y-113063351D01*
X134068538Y-104558911D01*
X134129905Y-104517907D01*
X134292354Y-104274785D01*
X134335000Y-104060390D01*
X134335000Y-104060386D01*
X134349398Y-103988002D01*
X134335000Y-103915618D01*
X134335000Y-103828711D01*
X134477431Y-103686280D01*
X134635000Y-103305874D01*
X134635000Y-102894126D01*
X134477431Y-102513720D01*
X134186280Y-102222569D01*
X133805874Y-102065000D01*
X133394126Y-102065000D01*
X133013720Y-102222569D01*
X132722569Y-102513720D01*
X132565000Y-102894126D01*
X132565000Y-103305874D01*
X132722569Y-103686280D01*
X132792422Y-103756133D01*
X124453555Y-112095001D01*
X122144445Y-112095001D01*
X130204447Y-104035000D01*
X130405874Y-104035000D01*
X130786280Y-103877431D01*
X131077431Y-103586280D01*
X131235000Y-103205874D01*
X131235000Y-102794126D01*
X131077431Y-102413720D01*
X130786280Y-102122569D01*
X130405874Y-101965000D01*
X129994126Y-101965000D01*
X129613720Y-102122569D01*
X129322569Y-102413720D01*
X129165000Y-102794126D01*
X129165000Y-102995553D01*
X121115554Y-111045000D01*
X108834882Y-111045000D01*
X108821520Y-111025001D01*
X118949613Y-111025001D01*
X119021997Y-111039399D01*
X119094381Y-111025001D01*
X119094385Y-111025001D01*
X119308780Y-110982355D01*
X119551902Y-110819906D01*
X119592908Y-110758536D01*
X133156354Y-97195091D01*
X133494126Y-97335000D01*
X133905874Y-97335000D01*
X134286280Y-97177431D01*
X134577431Y-96886280D01*
X134735000Y-96505874D01*
X134735000Y-96094126D01*
X134577431Y-95713720D01*
X134286280Y-95422569D01*
X133905874Y-95265000D01*
X133494126Y-95265000D01*
X133113720Y-95422569D01*
X132979154Y-95557135D01*
X132939613Y-95565000D01*
X132939610Y-95565000D01*
X132725215Y-95607646D01*
X132482093Y-95770095D01*
X132441089Y-95831462D01*
X131712601Y-96559950D01*
X131735000Y-96505874D01*
X131735000Y-96094126D01*
X131577431Y-95713720D01*
X131286280Y-95422569D01*
X130905874Y-95265000D01*
X130494126Y-95265000D01*
X130113720Y-95422569D01*
X129822569Y-95713720D01*
X129796414Y-95776864D01*
X128231891Y-96186620D01*
X128077431Y-95813720D01*
X127786280Y-95522569D01*
X127405874Y-95365000D01*
X126994126Y-95365000D01*
X126613720Y-95522569D01*
X126471289Y-95665000D01*
X124635000Y-95665000D01*
X124635000Y-95494126D01*
X124477431Y-95113720D01*
X124186280Y-94822569D01*
X123805874Y-94665000D01*
X123394126Y-94665000D01*
X123013720Y-94822569D01*
X122871289Y-94965000D01*
X113532383Y-94965000D01*
X113459999Y-94950602D01*
X113387615Y-94965000D01*
X113387612Y-94965000D01*
X113173217Y-95007646D01*
X112930095Y-95170095D01*
X112889091Y-95231462D01*
X109051846Y-99068708D01*
X108938839Y-98500582D01*
X108610625Y-98009375D01*
X108312239Y-97810000D01*
X108610625Y-97610625D01*
X108938839Y-97119418D01*
X109054092Y-96540000D01*
X108938839Y-95960582D01*
X108610625Y-95469375D01*
X108312239Y-95270000D01*
X108610625Y-95070625D01*
X108938839Y-94579418D01*
X109054092Y-94000000D01*
X108938839Y-93420582D01*
X108610625Y-92929375D01*
X108282307Y-92710000D01*
X140290000Y-92710000D01*
X140290001Y-119290000D01*
X140290001Y-119290000D01*
G37*
X140290001Y-119290000D02*
X133873711Y-119290000D01*
X133977431Y-119186280D01*
X134135000Y-118805874D01*
X134135000Y-118394126D01*
X133977431Y-118013720D01*
X133735000Y-117771289D01*
X133735000Y-115428711D01*
X133877431Y-115286280D01*
X134035000Y-114905874D01*
X134035000Y-114494126D01*
X133877431Y-114113720D01*
X133586280Y-113822569D01*
X133205874Y-113665000D01*
X132794126Y-113665000D01*
X132413720Y-113822569D01*
X132271289Y-113965000D01*
X131704447Y-113965000D01*
X131235000Y-113495554D01*
X131235000Y-113294126D01*
X131077431Y-112913720D01*
X130786280Y-112622569D01*
X130405874Y-112465000D01*
X129994126Y-112465000D01*
X129613720Y-112622569D01*
X129322569Y-112913720D01*
X129165000Y-113294126D01*
X129165000Y-113705874D01*
X129322569Y-114086280D01*
X129613720Y-114377431D01*
X129994126Y-114535000D01*
X130195554Y-114535000D01*
X130829090Y-115168537D01*
X130870095Y-115229905D01*
X131113217Y-115392354D01*
X131327612Y-115435000D01*
X131327615Y-115435000D01*
X131399999Y-115449398D01*
X131472383Y-115435000D01*
X132265000Y-115435000D01*
X132265001Y-117971288D01*
X132222569Y-118013720D01*
X132065000Y-118394126D01*
X132065000Y-118805874D01*
X132222569Y-119186280D01*
X132326289Y-119290000D01*
X108262608Y-119290000D01*
X108306924Y-119271645D01*
X108735183Y-118881358D01*
X108981486Y-118356892D01*
X108860819Y-118127000D01*
X107667000Y-118127000D01*
X107667000Y-118147000D01*
X107413000Y-118147000D01*
X107413000Y-118127000D01*
X107393000Y-118127000D01*
X107393000Y-117873000D01*
X107413000Y-117873000D01*
X107413000Y-116679845D01*
X107667000Y-116679845D01*
X107667000Y-117873000D01*
X108860819Y-117873000D01*
X108981486Y-117643108D01*
X108735183Y-117118642D01*
X108306924Y-116728355D01*
X107896890Y-116558524D01*
X107667000Y-116679845D01*
X107413000Y-116679845D01*
X107183110Y-116558524D01*
X106773076Y-116728355D01*
X106468739Y-117005708D01*
X106448157Y-116902235D01*
X106307809Y-116692191D01*
X106097765Y-116551843D01*
X105850000Y-116502560D01*
X104150000Y-116502560D01*
X103902235Y-116551843D01*
X103710000Y-116680291D01*
X103710000Y-115062307D01*
X103929375Y-115390625D01*
X104420582Y-115718839D01*
X104853744Y-115805000D01*
X105146256Y-115805000D01*
X105579418Y-115718839D01*
X106070625Y-115390625D01*
X106270000Y-115092239D01*
X106469375Y-115390625D01*
X106960582Y-115718839D01*
X107393744Y-115805000D01*
X107686256Y-115805000D01*
X108119418Y-115718839D01*
X108610625Y-115390625D01*
X108938839Y-114899418D01*
X109054092Y-114320000D01*
X108938839Y-113740582D01*
X108821520Y-113565001D01*
X115071288Y-113565001D01*
X114822569Y-113813720D01*
X114665000Y-114194126D01*
X114665000Y-114605874D01*
X114822569Y-114986280D01*
X115113720Y-115277431D01*
X115494126Y-115435000D01*
X115905874Y-115435000D01*
X116286280Y-115277431D01*
X116577431Y-114986280D01*
X116735000Y-114605874D01*
X116735000Y-114534999D01*
X123065000Y-114534999D01*
X123065000Y-114605875D01*
X123222569Y-114986281D01*
X123365000Y-115128712D01*
X123365001Y-116771288D01*
X123222569Y-116913720D01*
X123065000Y-117294126D01*
X123065000Y-117705874D01*
X123222569Y-118086280D01*
X123513720Y-118377431D01*
X123894126Y-118535000D01*
X124305874Y-118535000D01*
X124686280Y-118377431D01*
X124977431Y-118086280D01*
X125135000Y-117705874D01*
X125135000Y-117294126D01*
X124977431Y-116913720D01*
X124835000Y-116771289D01*
X124835000Y-115128712D01*
X124977431Y-114986281D01*
X125070711Y-114761083D01*
X125122569Y-114886280D01*
X125413720Y-115177431D01*
X125794126Y-115335000D01*
X126205874Y-115335000D01*
X126586280Y-115177431D01*
X126877431Y-114886280D01*
X127035000Y-114505874D01*
X127035000Y-114094126D01*
X126877431Y-113713720D01*
X126586280Y-113422569D01*
X126205874Y-113265000D01*
X126022280Y-113265000D01*
X125786782Y-113107645D01*
X125572387Y-113064999D01*
X125572383Y-113064999D01*
X125564097Y-113063351D01*
X134068538Y-104558911D01*
X134129905Y-104517907D01*
X134292354Y-104274785D01*
X134335000Y-104060390D01*
X134335000Y-104060386D01*
X134349398Y-103988002D01*
X134335000Y-103915618D01*
X134335000Y-103828711D01*
X134477431Y-103686280D01*
X134635000Y-103305874D01*
X134635000Y-102894126D01*
X134477431Y-102513720D01*
X134186280Y-102222569D01*
X133805874Y-102065000D01*
X133394126Y-102065000D01*
X133013720Y-102222569D01*
X132722569Y-102513720D01*
X132565000Y-102894126D01*
X132565000Y-103305874D01*
X132722569Y-103686280D01*
X132792422Y-103756133D01*
X124453555Y-112095001D01*
X122144445Y-112095001D01*
X130204447Y-104035000D01*
X130405874Y-104035000D01*
X130786280Y-103877431D01*
X131077431Y-103586280D01*
X131235000Y-103205874D01*
X131235000Y-102794126D01*
X131077431Y-102413720D01*
X130786280Y-102122569D01*
X130405874Y-101965000D01*
X129994126Y-101965000D01*
X129613720Y-102122569D01*
X129322569Y-102413720D01*
X129165000Y-102794126D01*
X129165000Y-102995553D01*
X121115554Y-111045000D01*
X108834882Y-111045000D01*
X108821520Y-111025001D01*
X118949613Y-111025001D01*
X119021997Y-111039399D01*
X119094381Y-111025001D01*
X119094385Y-111025001D01*
X119308780Y-110982355D01*
X119551902Y-110819906D01*
X119592908Y-110758536D01*
X133156354Y-97195091D01*
X133494126Y-97335000D01*
X133905874Y-97335000D01*
X134286280Y-97177431D01*
X134577431Y-96886280D01*
X134735000Y-96505874D01*
X134735000Y-96094126D01*
X134577431Y-95713720D01*
X134286280Y-95422569D01*
X133905874Y-95265000D01*
X133494126Y-95265000D01*
X133113720Y-95422569D01*
X132979154Y-95557135D01*
X132939613Y-95565000D01*
X132939610Y-95565000D01*
X132725215Y-95607646D01*
X132482093Y-95770095D01*
X132441089Y-95831462D01*
X131712601Y-96559950D01*
X131735000Y-96505874D01*
X131735000Y-96094126D01*
X131577431Y-95713720D01*
X131286280Y-95422569D01*
X130905874Y-95265000D01*
X130494126Y-95265000D01*
X130113720Y-95422569D01*
X129822569Y-95713720D01*
X129796414Y-95776864D01*
X128231891Y-96186620D01*
X128077431Y-95813720D01*
X127786280Y-95522569D01*
X127405874Y-95365000D01*
X126994126Y-95365000D01*
X126613720Y-95522569D01*
X126471289Y-95665000D01*
X124635000Y-95665000D01*
X124635000Y-95494126D01*
X124477431Y-95113720D01*
X124186280Y-94822569D01*
X123805874Y-94665000D01*
X123394126Y-94665000D01*
X123013720Y-94822569D01*
X122871289Y-94965000D01*
X113532383Y-94965000D01*
X113459999Y-94950602D01*
X113387615Y-94965000D01*
X113387612Y-94965000D01*
X113173217Y-95007646D01*
X112930095Y-95170095D01*
X112889091Y-95231462D01*
X109051846Y-99068708D01*
X108938839Y-98500582D01*
X108610625Y-98009375D01*
X108312239Y-97810000D01*
X108610625Y-97610625D01*
X108938839Y-97119418D01*
X109054092Y-96540000D01*
X108938839Y-95960582D01*
X108610625Y-95469375D01*
X108312239Y-95270000D01*
X108610625Y-95070625D01*
X108938839Y-94579418D01*
X109054092Y-94000000D01*
X108938839Y-93420582D01*
X108610625Y-92929375D01*
X108282307Y-92710000D01*
X140290000Y-92710000D01*
X140290001Y-119290000D01*
G36*
X130494126Y-97335000D02*
X130905874Y-97335000D01*
X130959950Y-97312601D01*
X118717551Y-109555001D01*
X116935000Y-109555001D01*
X116935000Y-109294126D01*
X116777431Y-108913720D01*
X116635000Y-108771289D01*
X116635000Y-108472383D01*
X116649398Y-108399999D01*
X116635000Y-108327615D01*
X116635000Y-108327612D01*
X116592354Y-108113217D01*
X116429905Y-107870095D01*
X116368537Y-107829091D01*
X114174446Y-105635000D01*
X114305874Y-105635000D01*
X114686280Y-105477431D01*
X114977431Y-105186280D01*
X115135000Y-104805874D01*
X115135000Y-104604446D01*
X116004447Y-103735000D01*
X120171289Y-103735000D01*
X120313720Y-103877431D01*
X120694126Y-104035000D01*
X121105874Y-104035000D01*
X121486280Y-103877431D01*
X121777431Y-103586280D01*
X121935000Y-103205874D01*
X121935000Y-102794126D01*
X121777431Y-102413720D01*
X121535000Y-102171289D01*
X121535000Y-101894126D01*
X121377431Y-101513720D01*
X121086280Y-101222569D01*
X120705874Y-101065000D01*
X120294126Y-101065000D01*
X119913720Y-101222569D01*
X119771289Y-101365000D01*
X114372388Y-101365000D01*
X114327792Y-101356129D01*
X114335545Y-101345718D01*
X130166831Y-97199430D01*
X130494126Y-97335000D01*
X130494126Y-97335000D01*
G37*
X130494126Y-97335000D02*
X130905874Y-97335000D01*
X130959950Y-97312601D01*
X118717551Y-109555001D01*
X116935000Y-109555001D01*
X116935000Y-109294126D01*
X116777431Y-108913720D01*
X116635000Y-108771289D01*
X116635000Y-108472383D01*
X116649398Y-108399999D01*
X116635000Y-108327615D01*
X116635000Y-108327612D01*
X116592354Y-108113217D01*
X116429905Y-107870095D01*
X116368537Y-107829091D01*
X114174446Y-105635000D01*
X114305874Y-105635000D01*
X114686280Y-105477431D01*
X114977431Y-105186280D01*
X115135000Y-104805874D01*
X115135000Y-104604446D01*
X116004447Y-103735000D01*
X120171289Y-103735000D01*
X120313720Y-103877431D01*
X120694126Y-104035000D01*
X121105874Y-104035000D01*
X121486280Y-103877431D01*
X121777431Y-103586280D01*
X121935000Y-103205874D01*
X121935000Y-102794126D01*
X121777431Y-102413720D01*
X121535000Y-102171289D01*
X121535000Y-101894126D01*
X121377431Y-101513720D01*
X121086280Y-101222569D01*
X120705874Y-101065000D01*
X120294126Y-101065000D01*
X119913720Y-101222569D01*
X119771289Y-101365000D01*
X114372388Y-101365000D01*
X114327792Y-101356129D01*
X114335545Y-101345718D01*
X130166831Y-97199430D01*
X130494126Y-97335000D01*
G04 #@! TD*
M02*
